<?xml version="1.0" standalone="no"?>
<!DOCTYPE svg PUBLIC "-//W3C//DTD SVG 20010904//EN" "http://www.w3.org/TR/2001/REC-SVG-20010904/DTD/svg10.dtd">
<!-- Created using Krita: https://krita.org -->
<svg xmlns="http://www.w3.org/2000/svg" 
    xmlns:xlink="http://www.w3.org/1999/xlink"
    xmlns:krita="http://krita.org/namespaces/svg/krita"
    xmlns:sodipodi="http://sodipodi.sourceforge.net/DTD/sodipodi-0.dtd"
    width="144pt"
    height="72pt"
    viewBox="0 0 144 72">
<defs/>
<path id="shape0" transform="translate(25.2012857707984, 3.56381818980988)" fill="none" stroke="#9f4029" stroke-width="15.84" stroke-linecap="square" stroke-linejoin="miter" stroke-miterlimit="2" d="M0 0L3.56382 57.5302"/><path id="shape1" transform="translate(36.7836948876805, 17.4372532858555)" fill="none" stroke="#9f4029" stroke-width="15.84" stroke-linecap="square" stroke-linejoin="miter" stroke-miterlimit="2" d="M0.127279 0L0 44.1659"/><path id="shape2" transform="translate(49.8934555749754, 29.2742213832764)" fill="none" stroke="#9f4029" stroke-width="15.84" stroke-linecap="square" stroke-linejoin="miter" stroke-miterlimit="2" d="M0.127279 0L0 34.8745"/><path id="shape3" transform="translate(21.7800008505104, 5.94000023195739)" fill="none" stroke="#9f4029" stroke-width="15.84" stroke-linecap="square" stroke-linejoin="miter" stroke-miterlimit="2" d="M0 0L0 83.34"/><path id="shape4" transform="translate(26.6400010402938, 72)" fill="none" stroke="#9f4029" stroke-width="15.84" stroke-linecap="square" stroke-linejoin="miter" stroke-miterlimit="2" d="M0 0L14.04 0"/><path id="shape5" transform="translate(-3.18198042583239, 37.2928105907557)" fill="none" stroke="#9f4029" stroke-width="15.84" stroke-linecap="square" stroke-linejoin="miter" stroke-miterlimit="2" d="M23.6739 0L0 0.127279"/><path id="shape6" transform="translate(6.23668163463149, 46.7114726512196)" fill="none" stroke="#9f4029" stroke-width="15.84" stroke-linecap="square" stroke-linejoin="miter" stroke-miterlimit="2" d="M0 0L1.27279 36.6564"/><path id="shape7" transform="translate(88.4590558381406, 33.7289925138234)" fill="none" stroke="#9f4029" stroke-width="15.84" stroke-linecap="square" stroke-linejoin="miter" stroke-miterlimit="2" d="M0 0L0.127279 46.4569"/><path id="shape8" transform="translate(51.9299205495847, 59.3121151375158)" fill="none" stroke="#9f4029" stroke-width="15.84" stroke-linecap="square" stroke-linejoin="miter" stroke-miterlimit="2" d="M0 0.127279L34.1108 0"/><path id="shape9" transform="translate(59.6939527886157, 66.0579136402805)" fill="none" stroke="#9f4029" stroke-width="15.84" stroke-linecap="square" stroke-linejoin="miter" stroke-miterlimit="2" d="M0 0L1.52735 12.2188"/><path id="shape10" transform="translate(60.9667449589487, 68.6034979809464)" fill="none" stroke="#9f4029" stroke-width="15.84" stroke-linecap="square" stroke-linejoin="miter" stroke-miterlimit="2" d="M0 0L24.5649 1.27279"/><path id="shape11" transform="translate(12.4200007134297, 45.0000025848903)" fill="none" stroke="#9f4029" stroke-width="15.84" stroke-linecap="square" stroke-linejoin="miter" stroke-miterlimit="2" d="M0 0L1.62 19.98"/><path id="shape12" transform="translate(15.8400009098814, 41.9400024091177)" fill="none" stroke="#9f4029" stroke-width="15.84" stroke-linecap="square" stroke-linejoin="miter" stroke-miterlimit="2" d="M0 0L5.76 20.34"/><path id="shape13" transform="translate(92.7000006838341, 16.200000119505)" fill="none" stroke="#9f4029" stroke-width="1.44" stroke-linecap="square" stroke-linejoin="miter" stroke-miterlimit="2" d="M0.09 11.34L0 0"/><path id="shape14" transform="translate(93.060005583352, 60.8400036502379)" fill="none" stroke="#9f4029" stroke-width="10.8" stroke-linecap="square" stroke-linejoin="miter" stroke-miterlimit="2" d="M0 0L27.09 0"/><path id="shape15" transform="translate(119.97000719788, 60.9300036556376)" fill="none" stroke="#9f4029" stroke-width="10.8" stroke-linecap="square" stroke-linejoin="miter" stroke-miterlimit="2" d="M0.63 0L0 14.22"/><path id="shape16" transform="translate(88.6500053187637, 68.4900041092175)" fill="none" stroke="#9f4029" stroke-width="10.8" stroke-linecap="square" stroke-linejoin="miter" stroke-miterlimit="2" d="M30.06 0L0 1.53"/><path id="shape17" transform="translate(88.8300053295632, 69.3900041632151)" fill="none" stroke="#9f4029" stroke-width="10.8" stroke-linecap="square" stroke-linejoin="miter" stroke-miterlimit="2" d="M23.58 0.27L0 0"/><path id="shape18" transform="translate(125.640003558642, 0)" fill="none" stroke="#9f4029" stroke-width="10.8" stroke-linecap="square" stroke-linejoin="miter" stroke-miterlimit="2" d="M0 58.41L0 0"/><path id="shape19" transform="translate(128.070003627469, 62.6400017742225)" fill="none" stroke="#9f4029" stroke-width="10.8" stroke-linecap="square" stroke-linejoin="miter" stroke-miterlimit="2" d="M0 0L0 9.36"/><path id="shape20" transform="translate(127.533784849735, 2.29102607514493)" fill="none" stroke="#9f4029" stroke-width="10.8" stroke-linecap="square" stroke-linejoin="miter" stroke-miterlimit="2" d="M8.27315 0L0 72.6764"/><path id="shape21" transform="translate(136.06149301833, 0)" fill="none" stroke="#9f4029" stroke-width="10.8" stroke-linecap="square" stroke-linejoin="miter" stroke-miterlimit="2" d="M4.70933 0L0 79.0404"/><path id="shape22" transform="translate(141.152662074207, 3.4365391127174)" fill="none" stroke="#9f4029" stroke-width="10.8" stroke-linecap="square" stroke-linejoin="miter" stroke-miterlimit="2" d="M0 0L2.84734 78.6586"/><path id="shape23" transform="translate(54.8100035685688, 9.00000058597188)" fill="none" stroke="#9f4029" stroke-width="1.44" stroke-linecap="square" stroke-linejoin="miter" stroke-miterlimit="2" d="M0 14.22L0.09 0"/><path id="shape24" transform="translate(73.0800024434126, 42.4800014203088)" fill="none" stroke="#9f4029" stroke-width="7.2" stroke-linecap="square" stroke-linejoin="miter" stroke-miterlimit="2" d="M10.8 0.27L0 0"/><path id="shape25" transform="translate(73.0800024434126, 43.2000014443818)" fill="none" stroke="#9f4029" stroke-width="7.2" stroke-linecap="square" stroke-linejoin="miter" stroke-miterlimit="2" d="M0.18 0L0 16.2"/><path id="shape26" transform="translate(76.6800025637777, 45.7200015286374)" fill="none" stroke="#9f4029" stroke-width="7.2" stroke-linecap="square" stroke-linejoin="miter" stroke-miterlimit="2" d="M0 0L2.07 13.41"/><path id="shape27" transform="translate(79.2000026480334, 46.8900015677561)" fill="none" stroke="#9f4029" stroke-width="7.2" stroke-linecap="square" stroke-linejoin="miter" stroke-miterlimit="2" d="M0 0L0.54 17.91"/><path id="shape28" transform="translate(111.150003716274, 39.6900013270258)" fill="none" stroke="#9f4029" stroke-width="7.2" stroke-linecap="square" stroke-linejoin="miter" stroke-miterlimit="2" d="M0 0L1.71 24.75"/><path id="shape29" transform="translate(111.240003719283, 37.9800012698524)" fill="none" stroke="#9f4029" stroke-width="7.2" stroke-linecap="square" stroke-linejoin="miter" stroke-miterlimit="2" d="M0 0.9L12.15 0"/><path id="shape30" transform="translate(118.350003957004, 41.5800013902175)" fill="none" stroke="#9f4029" stroke-width="7.2" stroke-linecap="square" stroke-linejoin="miter" stroke-miterlimit="2" d="M0.18 0L0 26.46"/><path id="shape31" transform="translate(110.430003692201, 38.3400012818889)" fill="none" stroke="#9f4029" stroke-width="7.2" stroke-linecap="square" stroke-linejoin="miter" stroke-miterlimit="2" d="M0 0L0.63 25.2"/><path id="shape32" transform="translate(113.940003809557, 41.5800013902175)" fill="none" stroke="#9f4029" stroke-width="7.2" stroke-linecap="square" stroke-linejoin="miter" stroke-miterlimit="2" d="M0 0L0.72 14.13"/><path id="shape33" transform="translate(115.020003845667, 40.1400013420715)" fill="none" stroke="#9f4029" stroke-width="7.2" stroke-linecap="square" stroke-linejoin="miter" stroke-miterlimit="2" d="M0.99 0L0 13.14"/><path id="shape34" transform="translate(115.020003845667, 40.6800013601262)" fill="none" stroke="#9f4029" stroke-width="7.2" stroke-linecap="square" stroke-linejoin="miter" stroke-miterlimit="2" d="M0 0L0.45 17.1"/><path id="shape35" transform="translate(120.278861633224, 14.7643893645016)" fill="none" stroke="#9f4029" stroke-width="7.2" stroke-linecap="square" stroke-linejoin="miter" stroke-miterlimit="2" d="M0 0L0.127279 34.6199"/><path id="shape36" transform="translate(17.9463699155781, 14.0007141185361)" fill="none" stroke="#ff8f72" stroke-width="3.6" stroke-linecap="square" stroke-linejoin="miter" stroke-miterlimit="2" d="M0 0L8.14587 0"/><path id="shape37" transform="translate(16.4826594582722, 23.9921336516163)" fill="none" stroke="#ff8f72" stroke-width="3.6" stroke-linecap="square" stroke-linejoin="miter" stroke-miterlimit="2" d="M0 0.0636396L7.76403 0"/><path id="shape38" transform="translate(34.8108676589764, 14.1916334331842)" fill="none" stroke="#ff8f72" stroke-width="3.6" stroke-linecap="square" stroke-linejoin="miter" stroke-miterlimit="2" d="M0 0L6.1094 0"/><path id="shape39" transform="translate(16.6735782936962, 3.24562020220804)" fill="none" stroke="#ff8f72" stroke-width="3.6" stroke-linecap="square" stroke-linejoin="miter" stroke-miterlimit="2" d="M0 0L13.8734 0.0636396"/><path id="shape40" transform="translate(84.0150007586822, 30.7800002779532)" fill="none" stroke="#ff8f72" stroke-width="3.6" stroke-linecap="square" stroke-linejoin="miter" stroke-miterlimit="2" d="M0 0.045L10.17 0"/><path id="shape41" transform="translate(83.8800007574632, 38.655000349067)" fill="none" stroke="#ff8f72" stroke-width="3.6" stroke-linecap="square" stroke-linejoin="miter" stroke-miterlimit="2" d="M0 0L9.945 0"/><path id="shape42" transform="translate(18.1372888371606, 1.40007141900889)" fill="none" stroke="#9f4029" stroke-width="2.16" stroke-linecap="square" stroke-linejoin="miter" stroke-miterlimit="2" d="M0.445477 6.1094L0 0"/><path id="shape43" transform="translate(24.6285290525654, 0)" fill="none" stroke="#9f4029" stroke-width="2.16" stroke-linecap="square" stroke-linejoin="miter" stroke-miterlimit="2" d="M0 8.52771L0.254558 0"/><path id="shape44" transform="translate(29.5287790190965, 0)" fill="none" stroke="#9f4029" stroke-width="2.16" stroke-linecap="square" stroke-linejoin="miter" stroke-miterlimit="2" d="M0 8.33679L0.318198 0"/><path id="shape45" transform="translate(19.4100810362596, 18.7736849367101)" fill="none" stroke="#9f4029" stroke-width="2.16" stroke-linecap="square" stroke-linejoin="miter" stroke-miterlimit="2" d="M0.190919 0L0 17.2263"/><path id="shape46" transform="translate(22.4647823140971, 7.95495124436868)" fill="none" stroke="#9f4029" stroke-width="2.16" stroke-linecap="square" stroke-linejoin="miter" stroke-miterlimit="2" d="M0 0L0.509117 14.7644"/><path id="shape47" transform="translate(37.5473698734201, 11.4551297918909)" fill="none" stroke="#9f4029" stroke-width="2.16" stroke-linecap="square" stroke-linejoin="miter" stroke-miterlimit="2" d="M0.445477 0L0 15.8463"/><path id="shape48" transform="translate(22.1465842643224, 19.2828018163497)" fill="none" stroke="#9f4029" stroke-width="2.16" stroke-linecap="square" stroke-linejoin="miter" stroke-miterlimit="2" d="M0 0L0.763675 12.1552"/><path id="shape49" transform="translate(22.2738634842323, 18.1372888371606)" fill="none" stroke="#9f4029" stroke-width="2.16" stroke-linecap="square" stroke-linejoin="miter" stroke-miterlimit="2" d="M0 0L0.318198 12.2824"/><path id="shape50" transform="translate(21.382908944863, 18.5827661068452)" fill="none" stroke="#9f4029" stroke-width="2.16" stroke-linecap="square" stroke-linejoin="miter" stroke-miterlimit="2" d="M0 0L0.890955 9.67322"/><path id="shape51" transform="translate(21.1919901149982, 19.9191979158992)" fill="none" stroke="#9f4029" stroke-width="2.16" stroke-linecap="square" stroke-linejoin="miter" stroke-miterlimit="2" d="M0 0L0.572756 8.14587"/><path id="shape52" transform="translate(20.2373959656739, 19.4737206462145)" fill="none" stroke="#9f4029" stroke-width="2.16" stroke-linecap="square" stroke-linejoin="miter" stroke-miterlimit="2" d="M0.763675 0L0 7.76403"/><path id="shape53" transform="translate(20.3646751855838, 18.5191264968903)" fill="none" stroke="#9f4029" stroke-width="2.16" stroke-linecap="square" stroke-linejoin="miter" stroke-miterlimit="2" d="M0 0L1.01823 10.1823"/><path id="shape54" transform="translate(23.7375745131961, 20.110116745764)" fill="none" stroke="#9f4029" stroke-width="2.16" stroke-linecap="square" stroke-linejoin="miter" stroke-miterlimit="2" d="M0.763675 0L0 8.71863"/><path id="shape55" transform="translate(24.3103310027907, 20.173756355719)" fill="none" stroke="#9f4029" stroke-width="2.16" stroke-linecap="square" stroke-linejoin="miter" stroke-miterlimit="2" d="M0 0L0.700036 7.31856"/><path id="shape56" transform="translate(25.5831232018897, 18.5827661068452)" fill="none" stroke="#9f4029" stroke-width="2.16" stroke-linecap="square" stroke-linejoin="miter" stroke-miterlimit="2" d="M0 0L0.381838 8.08223"/><path id="shape57" transform="translate(24.4376102227006, 18.3282076670254)" fill="none" stroke="#9f4029" stroke-width="2.16" stroke-linecap="square" stroke-linejoin="miter" stroke-miterlimit="2" d="M1.40007 0L0 11.646"/><path id="shape58" transform="translate(25.0740063222501, 18.837324546665)" fill="none" stroke="#9f4029" stroke-width="2.16" stroke-linecap="square" stroke-linejoin="miter" stroke-miterlimit="2" d="M0.509117 0L0 15.0189"/><path id="shape59" transform="translate(82.4451177292875, 28.1923482470663)" fill="none" stroke="#9f4029" stroke-width="2.16" stroke-linecap="square" stroke-linejoin="miter" stroke-miterlimit="2" d="M0.159099 15.6553L0 0"/><path id="shape60" transform="translate(95.1412203823117, 27.2377540626284)" fill="none" stroke="#9f4029" stroke-width="2.16" stroke-linecap="square" stroke-linejoin="miter" stroke-miterlimit="2" d="M0 0L0.222739 17.3418"/><path id="shape61" transform="translate(88.5545205096901, 27.8105105732911)" fill="none" stroke="#9f4029" stroke-width="2.16" stroke-linecap="square" stroke-linejoin="miter" stroke-miterlimit="2" d="M0 0L0.0318198 18.4873"/><path id="shape62" transform="translate(126.090002105236, 5.58000009316535)" fill="none" stroke="#ff8f72" stroke-width="2.16" stroke-linecap="square" stroke-linejoin="miter" stroke-miterlimit="2" d="M0 0.09L17.91 0"/><path id="shape63" transform="translate(126.720002115755, 18.4500003080467)" fill="none" stroke="#ff8f72" stroke-width="2.16" stroke-linecap="square" stroke-linejoin="miter" stroke-miterlimit="2" d="M0 0.09L17.28 0"/><path id="shape64" transform="translate(126.270002108242, 28.0800004688321)" fill="none" stroke="#ff8f72" stroke-width="2.16" stroke-linecap="square" stroke-linejoin="miter" stroke-miterlimit="2" d="M0 0.09L17.73 0"/><path id="shape65" transform="translate(130.680009058317, 1.98000013724723)" fill="none" stroke="#9f4029" stroke-width="2.16" stroke-linecap="square" stroke-linejoin="miter" stroke-miterlimit="2" d="M0.27 0L0 40.59"/><path id="shape66" transform="translate(137.880009557398, 0)" fill="none" stroke="#9f4029" stroke-width="2.16" stroke-linecap="square" stroke-linejoin="miter" stroke-miterlimit="2" d="M0 0L3.87 43.29"/><path id="shape67" transform="translate(134.370009314096, 1.62000011229319)" fill="none" stroke="#9f4029" stroke-width="2.16" stroke-linecap="square" stroke-linejoin="miter" stroke-miterlimit="2" d="M0.81 0L0 39.96"/><path id="shape68" transform="translate(45.6295992422583, 29.5287783101923)" fill="none" stroke="#ff8f72" stroke-width="2.16" stroke-linecap="square" stroke-linejoin="miter" stroke-miterlimit="2" d="M0 0.190919L10.5642 0"/><path id="shape69" transform="translate(44.6750051158512, 36.6564144540318)" fill="none" stroke="#ff8f72" stroke-width="2.16" stroke-linecap="square" stroke-linejoin="miter" stroke-miterlimit="2" d="M0 0L11.2642 0.0636396"/><path id="shape70" transform="translate(44.102248640007, 42.5112584293285)" fill="none" stroke="#ff8f72" stroke-width="2.16" stroke-linecap="square" stroke-linejoin="miter" stroke-miterlimit="2" d="M0 0.0636396L11.7097 0"/><path id="shape71" transform="translate(42.5748980377556, 25.3285641540011)" fill="none" stroke="#9f4029" stroke-width="2.16" stroke-linecap="square" stroke-linejoin="miter" stroke-miterlimit="2" d="M0.700036 0L0 28.3833"/><path id="shape72" transform="translate(44.3568070737155, 24.2466908107398)" fill="none" stroke="#9f4029" stroke-width="2.16" stroke-linecap="square" stroke-linejoin="miter" stroke-miterlimit="2" d="M0 0L0.190919 26.4741"/><path id="shape73" transform="translate(56.1937742411633, 25.9013206298454)" fill="none" stroke="#9f4029" stroke-width="2.16" stroke-linecap="square" stroke-linejoin="miter" stroke-miterlimit="2" d="M0.572756 0L0 25.965"/><path id="shape74" transform="translate(50.9116867417108, 24.4376096360212)" fill="none" stroke="#9f4029" stroke-width="2.16" stroke-linecap="square" stroke-linejoin="miter" stroke-miterlimit="2" d="M0 0L1.52735 28.6378"/><path id="shape75" transform="translate(0.585000014251939, 36.6750008934869)" fill="none" stroke="#ff8f72" stroke-width="2.16" stroke-linecap="square" stroke-linejoin="miter" stroke-miterlimit="2" d="M0 0.09L12.915 0"/><path id="shape76" transform="translate(5.40000013155635, 31.5450007685083)" fill="none" stroke="#9f4029" stroke-width="2.16" stroke-linecap="square" stroke-linejoin="miter" stroke-miterlimit="2" d="M0 0L0.09 13.545"/><path id="shape77" transform="translate(14.0400003420465, 32.0400007805677)" fill="none" stroke="#9f4029" stroke-width="2.16" stroke-linecap="square" stroke-linejoin="miter" stroke-miterlimit="2" d="M0 0L0.18 13.86"/><path id="shape78" transform="translate(143.252764204938, 3.43653899025617)" fill="none" stroke="#9f4029" stroke-width="2.16" stroke-linecap="square" stroke-linejoin="miter" stroke-miterlimit="2" d="M0 0L0.0636396 27.365"/><path id="shape79" transform="translate(158.653550455571, 0.827314944212766)" fill="none" stroke="#9f4029" stroke-width="2.16" stroke-linecap="square" stroke-linejoin="miter" stroke-miterlimit="2" d="M0 0L0.190919 28.4469"/><path id="shape80" transform="translate(159.099027733224, 0.700035722026186)" fill="none" stroke="#9f4029" stroke-width="2.16" stroke-linecap="square" stroke-linejoin="miter" stroke-miterlimit="2" d="M0 0L0.127279 29.9743"/><path id="shape81" transform="translate(14.4900006935619, 1.08000005169405)" fill="none" stroke="#9f4029" stroke-width="2.16" stroke-linecap="square" stroke-linejoin="miter" stroke-miterlimit="2" d="M0 0L0.09 26.73"/><path id="shape82" transform="translate(13.0461198942489, -37.8655674979418)" fill="none" stroke="#9f4029" stroke-width="2.16" stroke-linecap="square" stroke-linejoin="miter" stroke-miterlimit="2" d="M0 0L1.33643 15.2735"/><path id="shape83" transform="translate(12.8552010665281, -40.5384310860318)" fill="none" stroke="#9f4029" stroke-width="2.16" stroke-linecap="square" stroke-linejoin="miter" stroke-miterlimit="2" d="M0 0L0.127279 15.5281"/><path id="shape84" transform="translate(12.1551655884426, 33.4744350760251)" fill="none" stroke="#9f4029" stroke-width="2.16" stroke-linecap="square" stroke-linejoin="miter" stroke-miterlimit="2" d="M0.827315 0L0 11.646"/>
</svg>
